<svg fill="none" height="800" viewBox="0 0 24 24" width="800" xmlns="http://www.w3.org/2000/svg"><path d="m14 7c0 1.10457-.8954 2-2 2s-2-.89543-2-2 .8954-2 2-2 2 .89543 2 2z" fill="#323232" opacity=".1"/><path d="m21 17c0 1.1046-.8954 2-2 2s-2-.8954-2-2 .8954-2 2-2 2 .8954 2 2z" fill="#323232" opacity=".1"/><path d="m7 17c0 1.1046-.89543 2-2 2s-2-.8954-2-2 .89543-2 2-2 2 .8954 2 2z" fill="#323232" opacity=".1"/><g stroke="#323232" stroke-width="2"><path d="m5 3v12" stroke-linecap="round"/><path d="m5 19v2" stroke-linecap="round"/><path d="m12 3v2" stroke-linecap="round"/><path d="m19 19v2" stroke-linecap="round"/><path d="m12 9v12" stroke-linecap="round"/><path d="m19 3v12" stroke-linecap="round"/><path d="m14 7c0 1.10457-.8954 2-2 2s-2-.89543-2-2 .8954-2 2-2 2 .89543 2 2z"/><path d="m21 17c0 1.1046-.8954 2-2 2s-2-.8954-2-2 .8954-2 2-2 2 .8954 2 2z"/><path d="m7 17c0 1.1046-.89543 2-2 2s-2-.8954-2-2 .89543-2 2-2 2 .8954 2 2z"/></g></svg>