<svg fill="none" height="800" viewBox="0 0 24 24" width="800" xmlns="http://www.w3.org/2000/svg"><path d="m17 14c-1.1046 0-2-.8954-2-2s.8954-2 2-2 2 .8954 2 2-.8954 2-2 2z" fill="#323232" opacity=".1"/><path d="m7 21c-1.10457 0-2-.8954-2-2s.89543-2 2-2 2 .8954 2 2-.89543 2-2 2z" fill="#323232" opacity=".1"/><path d="m7 7c-1.10457 0-2-.89543-2-2s.89543-2 2-2 2 .89543 2 2-.89543 2-2 2z" fill="#323232" opacity=".1"/><g stroke="#323232" stroke-width="2"><path d="m21 5h-12" stroke-linecap="round"/><path d="m5 5h-2" stroke-linecap="round"/><path d="m21 12h-2" stroke-linecap="round"/><path d="m5 19h-2" stroke-linecap="round"/><path d="m15 12h-12" stroke-linecap="round"/><path d="m21 19h-12" stroke-linecap="round"/><path d="m17 14c-1.1046 0-2-.8954-2-2s.8954-2 2-2 2 .8954 2 2-.8954 2-2 2z"/><path d="m7 21c-1.10457 0-2-.8954-2-2s.89543-2 2-2 2 .8954 2 2-.89543 2-2 2z"/><path d="m7 7c-1.10457 0-2-.89543-2-2s.89543-2 2-2 2 .89543 2 2-.89543 2-2 2z"/></g></svg>