<svg fill="none" height="800" viewBox="0 0 24 24" width="800" xmlns="http://www.w3.org/2000/svg"><path d="m3 9.22843v5.54317c0 .5304.21071 1.0391.58579 1.4142l4.22842 4.2284c.37508.3751.88378.5858 1.41422.5858h5.54317c.5304 0 1.0391-.2107 1.4142-.5858l4.2284-4.2284c.3751-.3751.5858-.8838.5858-1.4142v-5.54317c0-.53044-.2107-1.03914-.5858-1.41422l-4.2284-4.22842c-.3751-.37508-.8838-.58579-1.4142-.58579h-5.54317c-.53044 0-1.03914.21071-1.41422.58579l-4.22842 4.22842c-.37508.37508-.58579.88378-.58579 1.41422z" fill="#323232" opacity=".1"/><g stroke="#323232" stroke-linecap="round" stroke-width="2"><path d="m3 9.22843v5.54317c0 .5304.21071 1.0391.58579 1.4142l4.22842 4.2284c.37508.3751.88378.5858 1.41422.5858h5.54317c.5304 0 1.0391-.2107 1.4142-.5858l4.2284-4.2284c.3751-.3751.5858-.8838.5858-1.4142v-5.54317c0-.53044-.2107-1.03914-.5858-1.41422l-4.2284-4.22842c-.3751-.37508-.8838-.58579-1.4142-.58579h-5.54317c-.53044 0-1.03914.21071-1.41422.58579l-4.22842 4.22842c-.37508.37508-.58579.88378-.58579 1.41422z" stroke-linejoin="round"/><path d="m12 8v5"/><path d="m12 16v-.0112"/></g></svg>