<svg fill="none" height="800" viewBox="0 0 24 24" width="800" xmlns="http://www.w3.org/2000/svg"><path d="m21 13v-6c0-1.88562 0-2.82843-.5858-3.41421-.5858-.58579-1.5286-.58579-3.4142-.58579h-10c-1.88562 0-2.82843 0-3.41421.58579-.58579.58578-.58579 1.52859-.58579 3.41421v6c0 1.8856 0 2.8284.58579 3.4142.58578.5858 1.52859.5858 3.41421.5858h2 .02322c.2966 0 .57228.1528.72947.4043l2.11131 3.3781c.0628.1005.2092.1005.272 0l2.1585-3.4536c.1278-.2046.352-.3288.5932-.3288h.1123 2c1.8856 0 2.8284 0 3.4142-.5858s.5858-1.5286.5858-3.4142z" fill="#323232" opacity=".1"/><g stroke="#323232" stroke-width="2"><path d="m7 9h10" stroke-linecap="round"/><path d="m7 12h6" stroke-linecap="round"/><path d="m21 13v-6c0-1.88562 0-2.82843-.5858-3.41421-.5858-.58579-1.5286-.58579-3.4142-.58579h-10c-1.88562 0-2.82843 0-3.41421.58579-.58579.58578-.58579 1.52859-.58579 3.41421v6c0 1.8856 0 2.8284.58579 3.4142.58578.5858 1.52859.5858 3.41421.5858h2 .02322c.2966 0 .57228.1528.72947.4043l2.11131 3.3781c.0628.1005.2092.1005.272 0l2.1585-3.4536c.1278-.2046.352-.3288.5932-.3288h.1123 2c1.8856 0 2.8284 0 3.4142-.5858s.5858-1.5286.5858-3.4142z" stroke-linejoin="round"/></g></svg>