<svg fill="none" height="800" viewBox="0 0 24 24" width="800" xmlns="http://www.w3.org/2000/svg"><path d="m21 12c0 4.9706-4.0294 9-9 9-4.97056 0-9-4.0294-9-9 0-4.97056 4.02944-9 9-9 4.9706 0 9 4.02944 9 9z" fill="#323232" opacity=".1"/><g stroke="#323232" stroke-width="2"><path d="m12 21c-4.97056 0-9-4.0294-9-9 0-4.97056 4.02944-9 9-9 4.9706 0 9 4.02944 9 9 0 4.9706-4.0294 9-9 9z"/><path d="m9.5 14.5 5.5-5.5" stroke-linecap="round" stroke-linejoin="round"/><path d="m14 15h-4.67167c-.18133 0-.32833-.147-.32833-.3284v-4.6716" stroke-linecap="round" stroke-linejoin="round"/></g></svg>