<svg fill="none" height="800" viewBox="0 0 24 24" width="800" xmlns="http://www.w3.org/2000/svg"><path d="m21 12c0 4.9706-4.0294 9-9 9-4.97056 0-9-4.0294-9-9 0-4.97056 4.02944-9 9-9 4.9706 0 9 4.02944 9 9z" fill="#323232" opacity=".1"/><g stroke="#323232" stroke-width="2"><path d="m21 12c0 4.9706-4.0294 9-9 9-4.97056 0-9-4.0294-9-9 0-4.97056 4.02944-9 9-9 4.9706 0 9 4.02944 9 9z"/><path d="m12 16v-8" stroke-linecap="round" stroke-linejoin="round"/><path d="m9 13 2.913 2.913c.048.048.126.048.174 0l2.913-2.913" stroke-linecap="round" stroke-linejoin="round"/></g></svg>