<svg fill="none" height="800" viewBox="0 0 24 24" width="800" xmlns="http://www.w3.org/2000/svg"><path d="m21 12c0 4.9706-4.0294 9-9 9-4.97056 0-9-4.0294-9-9 0-4.97056 4.02944-9 9-9 4.9706 0 9 4.02944 9 9z" fill="#323232" opacity=".1"/><g stroke="#323232" stroke-width="2"><path d="m12 3c4.9706 0 9 4.02944 9 9 0 4.9706-4.0294 9-9 9-4.97056 0-9-4.0294-9-9 0-4.97056 4.02944-9 9-9z"/><path d="m14.5 9.5-5.5 5.5" stroke-linecap="round" stroke-linejoin="round"/><path d="m10 9h4.6717c.1813 0 .3283.14703.3283.32837v4.67163" stroke-linecap="round" stroke-linejoin="round"/></g></svg>