<svg fill="none" height="800" viewBox="0 0 24 24" width="800" xmlns="http://www.w3.org/2000/svg"><g stroke="#000" stroke-width="2"><path d="m12 7c-2.76142 0-5 2.23858-5 5 0 1.3613.54402 2.5955 1.42651 3.4972.34374.3512.6263.7691.72272 1.251l.5291 2.6442c.18704.9348 1.00787 1.6076 1.96117 1.6076h.721c.9533 0 1.7741-.6728 1.9612-1.6076l.5291-2.6442c.0964-.4819.3789-.8998.7227-1.251.8825-.9017 1.4265-2.1359 1.4265-3.4972 0-2.76142-2.2386-5-5-5z"/><path d="m12 4v-1" stroke-linecap="round" stroke-linejoin="round"/><path d="m18 6 1-1" stroke-linecap="round" stroke-linejoin="round"/><path d="m20 12h1" stroke-linecap="round" stroke-linejoin="round"/><path d="m4 12h-1" stroke-linecap="round" stroke-linejoin="round"/><path d="m5 5 1 1" stroke-linecap="round" stroke-linejoin="round"/><path d="m10 17h4" stroke-linecap="round" stroke-linejoin="round"/></g><path d="m7 12c0-2.76142 2.23858-5 5-5 2.7614 0 5 2.23858 5 5 0 1.3613-.544 2.5955-1.4265 3.4972-.3438.3512-.6263.7691-.7227 1.251l-.0504.2518h-5.60079l-.05038-.2518c-.09642-.4819-.37898-.8998-.72272-1.251-.88249-.9017-1.42651-2.1359-1.42651-3.4972z" fill="#000" opacity=".1"/></svg>