<svg fill="none" height="800" viewBox="0 0 24 24" width="800" xmlns="http://www.w3.org/2000/svg"><path d="m19 12c1.1046 0 2.023.9068 1.7805 1.9844-.9037 4.0158-4.4918 7.0156-8.7805 7.0156-4.97056 0-9-4.0294-9-9 0-4.28873 2.99979-7.87682 7.0156-8.78051 1.0776-.2425 1.9844.67594 1.9844 1.78051v5c0 1.1046.8954 2 2 2z" fill="#323232" opacity=".1"/><path d="m20.6713 7.03621c-.6004-1.73398-1.9735-3.10713-3.7075-3.70747-1.0438-.36137-1.9638.56669-1.9638 1.67126v2c0 1.10457.8954 2 2 2h2c1.1046 0 2.0326-.92001 1.6713-1.96379z" fill="#323232" opacity=".1"/><g stroke="#323232" stroke-width="2"><path d="m19 12c1.1046 0 2.023.9068 1.7805 1.9844-.9037 4.0158-4.4918 7.0156-8.7805 7.0156-4.97056 0-9-4.0294-9-9 0-4.28873 2.99979-7.87682 7.0156-8.78051 1.0776-.2425 1.9844.67594 1.9844 1.78051v5c0 1.1046.8954 2 2 2z"/><path d="m20.6713 7.03621c-.6004-1.73398-1.9735-3.10713-3.7075-3.70747-1.0438-.36137-1.9638.56669-1.9638 1.67126v2c0 1.10457.8954 2 2 2h2c1.1046 0 2.0326-.92001 1.6713-1.96379z"/></g></svg>