<svg fill="none" height="800" viewBox="0 0 24 24" width="800" xmlns="http://www.w3.org/2000/svg"><path d="m21 13v-6c0-1.88562 0-2.82843-.5858-3.41421-.5858-.58579-1.5286-.58579-3.4142-.58579h-10c-1.88562 0-2.82843 0-3.41421.58579-.58579.58578-.58579 1.52859-.58579 3.41421v6c0 1.8856 0 2.8284.58579 3.4142.58578.5858 1.52859.5858 3.41421.5858h.5c.27614 0 .5.2239.5.5v2.5.1499c0 .3538.40137.5582.6875.3501l4.4081-3.2059c.2628-.1911.5794-.2941.9044-.2941h3c1.8856 0 2.8284 0 3.4142-.5858s.5858-1.5286.5858-3.4142z" fill="#323232" opacity=".1"/><g stroke="#323232" stroke-linejoin="round" stroke-width="2"><path d="m8 10h.01" stroke-linecap="round"/><path d="m12 10h.01" stroke-linecap="round"/><path d="m16 10h.01" stroke-linecap="round"/><path d="m21 13v-6c0-1.88562 0-2.82843-.5858-3.41421-.5858-.58579-1.5286-.58579-3.4142-.58579h-10c-1.88562 0-2.82843 0-3.41421.58579-.58579.58578-.58579 1.52859-.58579 3.41421v6c0 1.8856 0 2.8284.58579 3.4142.58578.5858 1.52859.5858 3.41421.5858h.5c.27614 0 .5.2239.5.5v2.5.1499c0 .3538.40137.5582.6875.3501l4.4081-3.2059c.2628-.1911.5794-.2941.9044-.2941h3c1.8856 0 2.8284 0 3.4142-.5858s.5858-1.5286.5858-3.4142z"/></g></svg>