<svg fill="none" height="800" viewBox="0 0 24 24" width="800" xmlns="http://www.w3.org/2000/svg"><path d="m21 12c0 4.9706-4.0294 9-9 9-4.97056 0-9-4.0294-9-9 0-4.97056 4.02944-9 9-9 4.9706 0 9 4.02944 9 9z" fill="#323232" opacity=".1"/><g stroke="#323232" stroke-linejoin="round" stroke-width="2"><path d="m21 12c0 4.9706-4.0294 9-9 9-4.97056 0-9-4.0294-9-9 0-4.97056 4.02944-9 9-9 4.9706 0 9 4.02944 9 9z"/><path d="m11 15 2.7158-2.7158c.157-.157.157-.4114 0-.5684l-2.7158-2.7158" stroke-linecap="round"/></g></svg>