<svg fill="none" height="800" viewBox="0 0 24 24" width="800" xmlns="http://www.w3.org/2000/svg"><path clip-rule="evenodd" d="m7.71297 5.1753c.97328.44921 2.12942.0022 2.54173-.98729.6463-1.55114 2.8437-1.55114 3.49 0 .4123.98949 1.5685 1.4365 2.5417.98729 1.6104-.74325 3.2812.92753 2.5379 2.53791-.4492.97328-.0022 2.12942.9873 2.54169 1.5512.6463 1.5512 2.8438 0 3.4901-.9895.4123-1.4365 1.5684-.9873 2.5417.7433 1.6104-.9275 3.2811-2.5379 2.5379-.9732-.4492-2.1294-.0022-2.5417.9873-.6463 1.5511-2.8437 1.5511-3.49 0-.41231-.9895-1.56845-1.4365-2.54173-.9873-1.61038.7432-3.28117-.9275-2.53792-2.5379.44921-.9733.0022-2.1294-.98729-2.5417-1.55113-.6463-1.55113-2.8438 0-3.4901.98949-.41227 1.4365-1.56841.98729-2.54169-.74325-1.61038.92754-3.28116 2.53792-2.53791zm4.28673 3.57464c-1.7949 0-3.25 1.45506-3.25 3.24996 0 1.795 1.4551 3.25 3.25 3.25s3.25-1.455 3.25-3.25c0-1.7949-1.4551-3.24996-3.25-3.24996z" fill="#323232" fill-rule="evenodd" opacity=".1"/><g stroke="#323232" stroke-width="2"><path d="m10.255 4.18806c-.41231.98949-1.56845 1.4365-2.54173.98729-1.61038-.74325-3.28117.92754-2.53792 2.53792.44921.97328.0022 2.12942-.98729 2.54173-1.55113.6463-1.55113 2.8437 0 3.49.98949.4123 1.4365 1.5685.98729 2.5417-.74325 1.6104.92754 3.2812 2.53792 2.5379.97328-.4492 2.12942-.0022 2.54173.9873.6463 1.5512 2.8437 1.5512 3.49 0 .4123-.9895 1.5685-1.4365 2.5417-.9873 1.6104.7433 3.2812-.9275 2.5379-2.5379-.4492-.9732-.0022-2.1294.9873-2.5417 1.5512-.6463 1.5512-2.8437 0-3.49-.9895-.41231-1.4365-1.56845-.9873-2.54173.7433-1.61038-.9275-3.28117-2.5379-2.53792-.9732.44921-2.1294.0022-2.5417-.98729-.6463-1.55113-2.8437-1.55113-3.49 0z" stroke-linecap="round" stroke-linejoin="round"/><path d="m15 12c0 1.6569-1.3431 3-3 3s-3-1.3431-3-3 1.3431-3 3-3 3 1.3431 3 3z"/></g></svg>