<svg fill="none" height="800" viewBox="0 0 24 24" width="800" xmlns="http://www.w3.org/2000/svg"><path d="m21 12c0 4.9706-4.0294 9-9 9-4.97056 0-9-4.0294-9-9 0-4.97056 4.02944-9 9-9 4.9706 0 9 4.02944 9 9z" fill="#323232" opacity=".1"/><g stroke="#323232" stroke-width="2"><path d="m21 12c0 4.9706-4.0294 9-9 9-4.97056 0-9-4.0294-9-9 0-4.97056 4.02944-9 9-9 4.9706 0 9 4.02944 9 9z"/><path d="m8 14c.91221 1.2144 2.3645 2 4.0004 2 1.6358 0 3.0881-.7856 4.0003-2" stroke-linecap="round"/><path d="m9 10.0112v-.0112" stroke-linecap="round"/><path d="m15 10.0112v-.0112" stroke-linecap="round"/></g></svg>