<svg fill="none" height="800" viewBox="0 0 24 24" width="800" xmlns="http://www.w3.org/2000/svg"><path d="m19 3h-14c-1.10457 0-2 .89543-2 2v1.17157c0 .53044.21071 1.03914.58579 1.41422l5.82842 5.82841c.37508.3751.58579.8838.58579 1.4142v5.1716.2857c0 .6326.7649.9494 1.2122.5021l.7878-.7878 1.4142-1.4142c.3751-.3751.5858-.8838.5858-1.4142v-2.3432c0-.5304.2107-1.0391.5858-1.4142l5.8284-5.82841c.3751-.37508.5858-.88378.5858-1.41422v-1.17157c0-1.10457-.8954-2-2-2z" fill="#323232" opacity=".1"/><path d="m19 3h-14c-1.10457 0-2 .89543-2 2v1.17157c0 .53044.21071 1.03914.58579 1.41422l5.82842 5.82841c.37508.3751.58579.8838.58579 1.4142v5.1716.2857c0 .6326.7649.9494 1.2122.5021l.7878-.7878 1.4142-1.4142c.3751-.3751.5858-.8838.5858-1.4142v-2.3432c0-.5304.2107-1.0391.5858-1.4142l5.8284-5.82841c.3751-.37508.5858-.88378.5858-1.41422v-1.17157c0-1.10457-.8954-2-2-2z" stroke="#323232" stroke-linecap="round" stroke-linejoin="round" stroke-width="2"/></svg>