<svg fill="none" height="800" viewBox="0 0 24 24" width="800" xmlns="http://www.w3.org/2000/svg"><path d="m20.5719 14.75c.2779-.8668.4279-1.7909.4279-2.75 0-1.7577-.5038-3.39767-1.375-4.78342-.0368.02126-.0794.03343-.125.03343h-1.6459c-.8859 0-1.6041.71818-1.6041 1.6041 0 .79698-.4503 1.52559-1.1631 1.88199l-.0806.0403c-.6335.3167-1.3791.3167-2.0125 0l-.0807-.0403c-.7128-.3564-1.1631-1.08501-1.1631-1.88199 0-.88592-.7182-1.6041-1.6041-1.6041h-.14587c-1.24264 0-2.25-1.00736-2.25-2.25v-.93531c-2.47809 1.33-4.26116 3.78688-4.66389 6.6853h2.91389c1.24264 0 2.25 1.0074 2.25 2.25 0 .9665.7835 1.75 1.75 1.75 1.24267 0 2.24997 1.0074 2.24997 2.25v3.9966c1.2465-.034 2.4298-.3214 3.5-.8127v-3.1839c0-1.2426 1.0074-2.25 2.25-2.25z" fill="#323232" opacity=".1"/><g stroke="#323232" stroke-width="2"><path d="m21 12c0 4.9706-4.0294 9-9 9-4.97056 0-9-4.0294-9-9 0-4.97056 4.02944-9 9-9 4.9706 0 9 4.02944 9 9z"/><path d="m3.5 11h2.5c1.10457 0 2 .8954 2 2 0 1.1046.89543 2 2 2 1.1046 0 2 .8954 2 2v3.5" stroke-linecap="round" stroke-linejoin="round"/><path d="m8 4v1c0 1.10457.89543 2 2 2h.1459c1.024 0 1.8541.83011 1.8541 1.8541 0 .70228.3968 1.3443 1.0249 1.6584l.0807.0403c.563.2815 1.2258.2815 1.7888 0l.0807-.0403c.6281-.3141 1.0249-.95612 1.0249-1.6584 0-1.02399.8301-1.8541 1.8541-1.8541h1.6459" stroke-linecap="round" stroke-linejoin="round"/><path d="m16 19.5v-2.5c0-1.1046.8954-2 2-2h2" stroke-linecap="round" stroke-linejoin="round"/></g></svg>