<svg fill="none" height="800" viewBox="0 0 24 24" width="800" xmlns="http://www.w3.org/2000/svg"><path d="m12 20.606c2.3072-2.1458 3.75-5.2073 3.75-8.6061 0-3.39874-1.4428-6.46024-3.75-8.60598-2.30723 2.14574-3.75 5.20726-3.75 8.60608 0 3.3987 1.44276 6.4602 3.75 8.606z" fill="#323232" opacity=".1"/><g stroke="#323232" stroke-width="2"><path d="m21 12c0 4.9706-4.0294 9-9 9-4.97056 0-9-4.0294-9-9 0-4.97056 4.02944-9 9-9 4.9706 0 9 4.02944 9 9z"/><path d="m12 3.05554c2.455 2.19728 4 5.39043 4 8.94446 0 3.554-1.545 6.7471-4 8.9444" stroke-linecap="round"/><path d="m12.0625 21c-2.49124-2.1988-4.0625-5.4159-4.0625-9 0-3.58408 1.57126-6.80117 4.0625-9" stroke-linecap="round"/><path d="m3 12h18" stroke-linecap="round" stroke-linejoin="round"/></g></svg>