<svg fill="none" height="800" viewBox="0 0 24 24" width="800" xmlns="http://www.w3.org/2000/svg"><path clip-rule="evenodd" d="m12 21c4.9706 0 9-4.0294 9-9 0-4.97056-4.0294-9-9-9-4.97056 0-9 4.02944-9 9 0 4.9706 4.02944 9 9 9zm2.149-5.8152c-.6914 1.9205-3.4825 1.6736-3.826-.3384-.1061-.6216-.59304-1.1085-1.21463-1.2146-2.01206-.3436-2.25896-3.1347-.33844-3.82608l3.90617-1.40624c1.7913-.64486 3.524 1.08784 2.8792 2.87912z" fill="#000" fill-rule="evenodd" opacity=".1"/><g stroke="#000" stroke-width="2"><path d="m21 12c0 4.9706-4.0294 9-9 9-4.97056 0-9-4.0294-9-9 0-4.97056 4.02944-9 9-9 4.9706 0 9 4.02944 9 9z"/><path d="m13.9137 15.1001 1.4063-3.9062c.5732-1.59223-.967-3.13241-2.5592-2.5592l-3.90625 1.4062c-1.67875.6044-1.46293 3.0441.29583 3.3444.72617.124 1.29502.6928 1.41902 1.419.3002 1.7588 2.74 1.9746 3.3443.2958z" stroke-linecap="round" stroke-linejoin="round"/></g></svg>