<svg fill="none" height="800" viewBox="0 0 24 24" width="800" xmlns="http://www.w3.org/2000/svg"><path d="m4.8824 12.9557 5.6197 6.3514c.796.8996 2.1998.8996 2.9958 0l5.6197-6.3514c1.6729-1.8908 2.542-4.2686 1.2851-6.53603-1.4522-2.61975-4.1132-3.15519-6.4256-1.39592-.7951.60486-1.4477 1.29559-1.7664 1.65396-.1107.12453-.3107.12453-.4214 0-.3187-.35837-.9713-1.0491-1.7664-1.65396-2.31237-1.75927-4.97345-1.22383-6.42562 1.39592-1.25688 2.26743-.38781 4.64523 1.28512 6.53603z" fill="#323232" opacity=".1"/><path d="m4.8824 12.9557 5.6197 6.3514c.796.8996 2.1998.8996 2.9958 0l5.6197-6.3514c1.6729-1.8908 2.542-4.2686 1.2851-6.53603-1.4522-2.61975-4.1132-3.15519-6.4256-1.39592-.7951.60486-1.4477 1.29559-1.7664 1.65396-.1107.12453-.3107.12453-.4214 0-.3187-.35837-.9713-1.0491-1.7664-1.65396-2.31237-1.75927-4.97345-1.22383-6.42562 1.39592-1.25688 2.26743-.38781 4.64523 1.28512 6.53603z" stroke="#323232" stroke-linejoin="round" stroke-width="2"/></svg>