<svg fill="none" height="800" viewBox="0 0 24 24" width="800" xmlns="http://www.w3.org/2000/svg"><path d="m21 12c0 4.9706-4.0294 9-9 9-4.97056 0-9-4.0294-9-9 0-4.97056 4.02944-9 9-9 4.9706 0 9 4.02944 9 9z" fill="#323232" opacity=".1"/><g stroke="#323232" stroke-width="2"><path d="m21 12c0 4.9706-4.0294 9-9 9-4.97056 0-9-4.0294-9-9 0-4.97056 4.02944-9 9-9 4.9706 0 9 4.02944 9 9z"/><path d="m10.5 8.67709c.3665-.41521.9027-.67709 1.5-.67709 1.1046 0 2 .89543 2 2 0 .9337-.6399 1.718-1.5051 1.9383-.2676.0681-.4949.2856-.4949.5617v.5" stroke-linecap="round" stroke-linejoin="round"/><path d="m12 16h.01" stroke-linecap="round" stroke-linejoin="round"/></g></svg>