<svg fill="none" height="800" viewBox="0 0 24 24" width="800" xmlns="http://www.w3.org/2000/svg"><path d="m17.7218 8.08382-3-2.78571c-1.2909-1.19874-1.9364-1.79811-2.7218-1.79811s-1.4309.59937-2.7218 1.79811l-3 2.78571c-.62984.58485-.94475.87727-1.11148 1.2596-.16672.38233-.16672.81208-.16672 1.67158v5.9849c0 1.8857 0 2.8285.58579 3.4143.58578.5857 1.52859.5857 3.41421.5857h.75v-4c0-1.2426 1.0074-2.25 2.25-2.25s2.25 1.0074 2.25 2.25v4h.75c1.8856 0 2.8284 0 3.4142-.5857.5858-.5858.5858-1.5286.5858-3.4143v-5.9849c0-.8595 0-1.28925-.1667-1.67158s-.4817-.67476-1.1115-1.2596z" fill="#323232" opacity=".1"/><g stroke="#323232" stroke-linejoin="round" stroke-width="2"><path d="m19 9v8c0 1.8856 0 2.8284-.5858 3.4142s-1.5286.5858-3.4142.5858h-1-4-1c-1.88562 0-2.82843 0-3.41421-.5858-.58579-.5858-.58579-1.5286-.58579-3.4142v-8"/><path d="m3 11 4.5-4 3.1713-2.81891c.7577-.67357 1.8997-.67357 2.6574 0l3.1713 2.81891 4.5 4" stroke-linecap="round"/><path d="m10 21v-4c0-1.1046.8954-2 2-2 1.1046 0 2 .8954 2 2v4" stroke-linecap="round"/></g></svg>