<svg fill="none" height="800" viewBox="0 0 24 24" width="800" xmlns="http://www.w3.org/2000/svg"><path d="m4.44905 17.0091c-4.695312-9.17142 2.89158-16.322914 15.10565-13.39659.8614.20637 1.4535.99739 1.4105 1.88207-.3789 7.79342-3.931 12.21022-14.83256 12.49122-.7023.0181-1.36344-.3514-1.68359-.9767z" fill="#323232" opacity=".1"/><g stroke="#323232" stroke-linecap="round" stroke-linejoin="round" stroke-width="2"><path d="m4.44905 17.0091c-4.695312-9.17142 2.89158-16.322914 15.10565-13.39659.8614.20637 1.4535.99739 1.4105 1.88207-.3789 7.79342-3.931 12.21022-14.83256 12.49122-.7023.0181-1.36344-.3514-1.68359-.9767z"/><path d="m3.99987 21c1.50006-5.5 2.00001-8.5 7.99993-11.00003"/></g></svg>