<svg fill="none" height="800" viewBox="0 0 24 24" width="800" xmlns="http://www.w3.org/2000/svg"><path d="m3.09097 6.4173c-.09097.34342-.09097.79777-.09097 1.58267v8.00003c0 .9319 0 1.3978.15224 1.7653.20299.4901.59234.8794 1.08239 1.0824.36755.1523.83349.1523 1.76537.1523h12c.9319 0 1.3978 0 1.7654-.1523.49-.203.8794-.5923 1.0824-1.0824.1522-.3675.1522-.8334.1522-1.7653v-8.00003c0-.78491 0-1.23925-.091-1.58267-.057.1245-.1407.23922-.2505.33525l-6.683 5.84765c-1.1311.9897-2.8199.9897-3.951 0l-6.683-5.84765c-.10975-.09603-.19346-.21075-.25053-.33525z" fill="#323232" opacity=".1"/><g stroke="#323232" stroke-linejoin="round" stroke-width="2"><path d="m3 8c0-.93188 0-1.39782.15224-1.76537.20299-.49005.59234-.8794 1.08239-1.08239.36755-.15224.83349-.15224 1.76537-.15224h12c.9319 0 1.3978 0 1.7654.15224.49.20299.8794.59234 1.0824 1.08239.1522.36755.1522.83349.1522 1.76537v8c0 .9319 0 1.3978-.1522 1.7654-.203.49-.5924.8794-1.0824 1.0824-.3676.1522-.8335.1522-1.7654.1522h-12c-.93188 0-1.39782 0-1.76537-.1522-.49005-.203-.8794-.5924-1.08239-1.0824-.15224-.3676-.15224-.8335-.15224-1.7654z"/><path d="m4 6 6.683 5.8476c.754.6598 1.88.6598 2.634 0l6.683-5.8476" stroke-linecap="round"/></g></svg>