<svg fill="none" height="800" viewBox="0 0 24 24" width="800" xmlns="http://www.w3.org/2000/svg"><path d="m20.8667 15.3164c.052-.1181-.0661-.2379-.1875-.1941-3.3627 1.2145-7.2295.4978-9.7668-2.0386-2.52551-2.5245-3.24379-6.3668-2.05093-9.71811.04922-.1383-.08729-.27263-.22126-.2126-.00904.00405-.01807.00812-.0271.01219-1.85546.83795-3.50657 2.25142-4.47628 4.03218-1.03663 1.90365-1.37852 4.10844-.96708 6.23654.41144 2.128 1.55059 4.0467 3.22218 5.4271s3.77147 2.1367 5.93977 2.139c1.8645.0001 3.6864-.5576 5.2312-1.6013 1.4262-.9635 2.556-2.4231 3.2682-4.0025.012-.0265.0238-.0532.0356-.0798z" fill="#323232" opacity=".1"/><path d="m20.8667 15.3164c.052-.1181-.0661-.2379-.1875-.1941-3.3627 1.2145-7.2295.4978-9.7668-2.0386-2.52551-2.5245-3.24379-6.3668-2.05093-9.71811.04922-.1383-.08729-.27263-.22126-.2126-.00904.00405-.01807.00812-.0271.01219-1.85546.83795-3.50657 2.25142-4.47628 4.03218-1.03663 1.90365-1.37852 4.10844-.96708 6.23654.41144 2.128 1.55059 4.0467 3.22218 5.4271s3.77147 2.1367 5.93977 2.139c1.8645.0001 3.6864-.5576 5.2312-1.6013 1.4262-.9635 2.556-2.4231 3.2682-4.0025.012-.0265.0238-.0532.0356-.0798z" stroke="#323232" stroke-linecap="round" stroke-linejoin="round" stroke-width="2"/></svg>