<svg fill="none" height="800" viewBox="0 0 24 24" width="800" xmlns="http://www.w3.org/2000/svg"><path d="m3 6.5c0 8.0081 6.49187 14.5 14.5 14.5.666 0 1.3216-.0449 1.9637-.1318.911-.1234 1.5363-.939 1.5363-1.8582v-2.5685c0-.8608-.5509-1.6251-1.3675-1.8973l-3.1484-1.0495c-.8005-.2668-1.6589.2043-1.8635 1.023-.2731 1.0925-1.6336 1.4693-2.4299.673l-3.38144-3.3814c-.79625-.7963-.41942-2.15676.67303-2.42987.81871-.20467 1.28981-1.06299 1.02301-1.86357l-1.04945-3.14832c-.27223-.81668-1.03651-1.36754-1.89737-1.36754h-2.56844c-.91924 0-1.73486.62533-1.85819 1.53627-.08695.64218-.13185 1.29771-.13185 1.96373z" fill="#323232" opacity=".1"/><path d="m3 6.5c0 8.0081 6.49187 14.5 14.5 14.5.666 0 1.3216-.0449 1.9637-.1318.911-.1234 1.5363-.939 1.5363-1.8582v-2.5685c0-.8608-.5509-1.6251-1.3675-1.8973l-3.1484-1.0495c-.8005-.2668-1.6589.2043-1.8635 1.023-.2731 1.0925-1.6336 1.4693-2.4299.673l-3.38144-3.3814c-.79625-.7963-.41942-2.15676.67303-2.42987.81871-.20467 1.28981-1.06299 1.02301-1.86357l-1.04945-3.14832c-.27223-.81668-1.03651-1.36754-1.89737-1.36754h-2.56844c-.91924 0-1.73486.62533-1.85819 1.53627-.08695.64218-.13185 1.29771-.13185 1.96373z" stroke="#323232" stroke-linejoin="round" stroke-width="2"/></svg>