<svg fill="none" height="800" viewBox="0 0 24 24" width="800" xmlns="http://www.w3.org/2000/svg"><path d="m17.1813 16.3254-1.8042-1.8041c1.1265-1.0131 2.0019-1.5344 2.823-1.6367.81-.1009 1.6248.2002 2.6481.9841.0453.0347.0988.0515.1518.0515v1.1038c0 4.9212-1.0548 5.976-5.976 5.976h-6.048c-4.92124 0-5.976-1.0548-5.976-5.976v-1.2718c.06398 0 .12796-.0244.17678-.0732l1.27658-1.2766c.86592-.8659 1.59633-1.5031 2.25666-1.9233.65788-.4186 1.23295-.61338 1.79223-.61338.55929 0 1.13435.19478 1.79225.61338.6603.4202 1.3907 1.0574 2.2566 1.9233l4.2766 4.2766c.0977.0976.2559.0976.3536 0 .0976-.0977.0976-.256 0-.3536z" fill="#323232" opacity=".1"/><g stroke="#323232" stroke-width="2"><path d="m3 8.976c0-4.92124 1.05476-5.976 5.976-5.976h6.048c4.9212 0 5.976 1.05476 5.976 5.976v6.048c0 4.9212-1.0548 5.976-5.976 5.976h-6.048c-4.92124 0-5.976-1.0548-5.976-5.976z"/><path d="m17.0045 16.5022-4.2766-4.2766c-3.47982-3.47982-4.97148-3.47982-8.45132 0l-1.27658 1.2766" stroke-linecap="round"/><path d="m21.0002 13.6702c-2.0932-1.6035-3.5222-1.3783-5.802.6757" stroke-linecap="round"/><path d="m17 8c0 .55228-.4477 1-1 1s-1-.44772-1-1 .4477-1 1-1 1 .44772 1 1z"/></g></svg>