<svg fill="none" height="800" viewBox="0 0 24 24" width="800" xmlns="http://www.w3.org/2000/svg"><path clip-rule="evenodd" d="m12.9522 20.9046c2.1208-1.4111 7.0478-5.1959 7.0478-9.9046 0-4.41828-3.5817-8-8-8-4.41828 0-8 3.58172-8 8 0 4.7087 4.92699 8.4935 7.0478 9.9046.5816.3869 1.3228.3869 1.9044 0zm-.9522-13.1546c-1.7949 0-3.25 1.45507-3.25 3.25 0 1.7949 1.4551 3.25 3.25 3.25s3.25-1.4551 3.25-3.25c0-1.79493-1.4551-3.25-3.25-3.25z" fill="#323232" fill-rule="evenodd" opacity=".1"/><g stroke="#323232" stroke-width="2"><path d="m20 11c0 2.2685-1.1435 4.3225-2.5659 6-1.5296 1.8039-3.3816 3.1724-4.4808 3.9039-.5816.3869-1.325.3869-1.9066 0-1.09918-.7315-2.95122-2.1-4.48079-3.9039-1.42238-1.6775-2.56591-3.7315-2.56591-6 0-4.41828 3.58172-8 8-8 4.4183 0 8 3.58172 8 8z"/><path d="m15 11c0 1.6569-1.3431 3-3 3s-3-1.3431-3-3c0-1.65685 1.3431-3 3-3s3 1.34315 3 3z"/></g></svg>