<svg fill="none" height="800" viewBox="0 0 24 24" width="800" xmlns="http://www.w3.org/2000/svg"><path clip-rule="evenodd" d="m12 3c-7.4115 0-9 1.5885-9 9s1.5885 9 9 9 9-1.5885 9-9-1.5885-9-9-9zm-.5 4.75c-2.07107 0-3.75 1.67893-3.75 3.75 0 2.0711 1.67893 3.75 3.75 3.75 2.0711 0 3.75-1.6789 3.75-3.75 0-2.07107-1.6789-3.75-3.75-3.75z" fill="#323232" fill-rule="evenodd" opacity=".1"/><g stroke="#323232" stroke-width="2"><path d="m3 12c0-7.4115 1.5885-9 9-9s9 1.5885 9 9-1.5885 9-9 9-9-1.5885-9-9z"/><path d="m14 14 2 2" stroke-linecap="round" stroke-linejoin="round"/><path d="m15 11.5c0 1.933-1.567 3.5-3.5 3.5s-3.5-1.567-3.5-3.5 1.567-3.5 3.5-3.5 3.5 1.567 3.5 3.5z"/></g></svg>