<svg fill="none" height="800" viewBox="0 0 24 24" width="800" xmlns="http://www.w3.org/2000/svg"><path clip-rule="evenodd" d="m12 21c4.9706 0 9-4.0294 9-9 0-4.97056-4.0294-9-9-9-4.97056 0-9 4.02944-9 9 0 4.9706 4.02944 9 9 9zm-.5-13.25c-2.07107 0-3.75 1.67893-3.75 3.75 0 2.0711 1.67893 3.75 3.75 3.75 2.0711 0 3.75-1.6789 3.75-3.75 0-2.07107-1.6789-3.75-3.75-3.75z" fill="#323232" fill-rule="evenodd" opacity=".1"/><g stroke="#323232" stroke-width="2"><path d="m21 12c0 4.9706-4.0294 9-9 9-4.97056 0-9-4.0294-9-9 0-4.97056 4.02944-9 9-9 4.9706 0 9 4.02944 9 9z"/><path d="m14 14 2 2" stroke-linecap="round" stroke-linejoin="round"/><path d="m15 11.5c0 1.933-1.567 3.5-3.5 3.5s-3.5-1.567-3.5-3.5 1.567-3.5 3.5-3.5 3.5 1.567 3.5 3.5z"/></g></svg>