<svg fill="none" height="800" viewBox="0 0 24 24" width="800" xmlns="http://www.w3.org/2000/svg"><path d="m17.6 6.31999c-.7331-.73858-1.6057-1.32403-2.567-1.72232-.9614-.39829-1.9924-.60145-3.033-.59768-1.3911.00136-2.75752.3682-3.96229 1.06378s-2.20563 1.69549-2.90237 2.89958c-.69674 1.2041-1.06488 2.57015-1.06758 3.96125-.00269 1.3912.36017 2.7586 1.05224 3.9654l-1.12 4.11 4.2-1.1c1.15975.6452 2.4629.9891 3.79 1 2.1097.0001 4.134-.8332 5.6322-2.3184 1.4983-1.4851 2.3493-3.502 2.3678-5.6116-.007-1.0527-.2218-2.09366-.6319-3.0632-.4101-.96955-1.0076-1.84861-1.7581-2.58681zm-5.6 12.21001c-1.1823.0008-2.34299-.317-3.36-.92l-.24-.15-2.49.66.66-2.43-.16-.25c-.85075-1.3733-1.16826-3.011-.89238-4.6028.27588-1.59175 1.12599-3.02705 2.38928-4.03398 1.2633-1.00694 2.852-1.51557 4.4652-1.42954 1.6132.08602 3.1389.76073 4.2879 1.89631 1.256 1.22819 1.975 2.90351 2 4.66001-.0158 1.7559-.7245 3.4345-1.9718 4.6706-1.2472 1.236-2.9322 1.9295-4.6882 1.9294zm3.61-4.94c-.2-.1-1.17-.58-1.35-.64s-.32-.1-.45.1c-.1956.2681-.406.5251-.63.77-.11.14-.23.15-.43 0-1.1403-.4506-2.0903-1.2806-2.69-2.35-.21-.35.2-.33.58-1.08.0281-.0541.0427-.1141.0427-.175s-.0146-.1209-.0427-.175c0-.10001-.45-1.08001-.61-1.47001s-.32-.33-.45-.34h-.39c-.10105.00155-.2006.02466-.292.06777s-.17254.10524-.238.18223c-.22438.21818-.39939.48192-.51324.77344s-.16389.60406-.14676.91657c.0627.7481.34443 1.4611.81 2.05.8522 1.2758 2.0201 2.3093 3.39 3 .7185.4194 1.5535.5948 2.38.5.2752-.0546.5359-.1665.765-.3285.2292-.1619.4217-.3703.565-.6115.1328-.2944.1746-.6217.12-.94-.09-.1-.22-.15-.42-.25z" fill="#000"/></svg>