<svg fill="none" height="800" viewBox="0 0 24 24" width="800" xmlns="http://www.w3.org/2000/svg"><g fill="#0f0f0f"><path clip-rule="evenodd" d="m12 18c3.3137 0 6-2.6863 6-6 0-3.31371-2.6863-6-6-6-3.31371 0-6 2.68629-6 6 0 3.3137 2.68629 6 6 6zm0-2c2.2091 0 4-1.7909 4-4 0-2.20914-1.7909-4-4-4-2.20914 0-4 1.79086-4 4 0 2.2091 1.79086 4 4 4z" fill-rule="evenodd"/><path d="m18 5c-.5523 0-1 .44772-1 1s.4477 1 1 1 1-.44772 1-1-.4477-1-1-1z"/><path clip-rule="evenodd" d="m1.65396 4.27606c-.65396 1.28347-.65396 2.96363-.65396 6.32394v2.8c0 3.3603 0 5.0405.65396 6.3239.57524 1.129 1.49312 2.0469 2.6221 2.6221 1.28347.654 2.96363.654 6.32394.654h2.8c3.3603 0 5.0405 0 6.3239-.654 1.129-.5752 2.0469-1.4931 2.6221-2.6221.654-1.2834.654-2.9636.654-6.3239v-2.8c0-3.36031 0-5.04047-.654-6.32394-.5752-1.12898-1.4931-2.04686-2.6221-2.6221-1.2834-.65396-2.9636-.65396-6.3239-.65396h-2.8c-3.36031 0-5.04047 0-6.32394.65396-1.12898.57524-2.04686 1.49312-2.6221 2.6221zm11.74604-1.27606h-2.8c-1.71316 0-2.87775.00156-3.77792.0751-.87684.07164-1.32524.20149-1.63804.36087-.75265.3835-1.36457.99542-1.74807 1.74807-.15938.3128-.28923.7612-.36087 1.63804-.07354.90017-.0751 2.06476-.0751 3.77792v2.8c0 1.7132.00156 2.8777.0751 3.7779.07164.8769.20149 1.3253.36087 1.6381.3835.7526.99542 1.3645 1.74807 1.748.3128.1594.7612.2893 1.63804.3609.90017.0735 2.06476.0751 3.77792.0751h2.8c1.7132 0 2.8777-.0016 3.7779-.0751.8769-.0716 1.3253-.2015 1.6381-.3609.7526-.3835 1.3645-.9954 1.748-1.748.1594-.3128.2893-.7612.3609-1.6381.0735-.9002.0751-2.0647.0751-3.7779v-2.8c0-1.71316-.0016-2.87775-.0751-3.77792-.0716-.87684-.2015-1.32524-.3609-1.63804-.3835-.75265-.9954-1.36457-1.748-1.74807-.3128-.15938-.7612-.28923-1.6381-.36087-.9002-.07354-2.0647-.0751-3.7779-.0751z" fill-rule="evenodd"/></g></svg>