<svg fill="none" height="800" viewBox="0 0 24 24" width="800" xmlns="http://www.w3.org/2000/svg"><path d="m17.7634 10.7614.107-.1635c.0557-.085-.0053-.1979-.107-.1979h-4.2634c-.1183 0-.2143-.0959-.2143-.2143v-5.95523-.0179c0-.063-.0819-.08744-.1164-.03473l-5.98062 9.13396-.08532.1303c-.04441.0679.00425.1579.08532.1579h4.26012.0539c.1169 0 .2116.0947.2116.2116v5.7911c0 .1178.154.162.2185.0635z" fill="#323232" opacity=".1"/><path d="m17.7634 10.7614.107-.1635c.0557-.085-.0053-.1979-.107-.1979h-4.2634c-.1183 0-.2143-.0959-.2143-.2143v-5.95523-.0179c0-.063-.0819-.08744-.1164-.03473l-5.98062 9.13396-.08532.1303c-.04441.0679.00425.1579.08532.1579h4.26012.0539c.1169 0 .2116.0947.2116.2116v5.7911c0 .1178.154.162.2185.0635z" stroke="#323232" stroke-linejoin="round" stroke-width="2"/></svg>