<svg viewBox="0 0 200 200" xmlns="http://www.w3.org/2000/svg"><path d="m62.94 64.8c-.26-2.59-1.66-8.53-5.45-9.8-1.87-.58-4.62-1.33-12.77-1.89 0 0-10.4-1.65-12.35 11.68s-2.87 21.37-3.35 24.88-.93 9.16 1.05 9.65 10.09 2.2 10.44-.64 1.44-7.02 3.12-7.07c1.69-.05 2.22.08 2.98.11s1.79.73 1.54 2.44-.79 5.65 1.26 6.12c2.04.46 4.38.61 6.1.66s5.88-.05 6.07-1.51c0 0 1.07-5.4 1.15-13.82s.47-18.24.21-20.83zm-12.29 13.49c-.19.66-.3 2.21-.89 2.86-.41.45-1.92.64-3.04.45-.94-.16-2.47-.29-2.55-.77-.17-1.06-.21-2.97 0-4.29.4-2.45.72-4.51.96-7.26 0 0 .44-2.93 3-2.66 2.56.28 2.54 1.68 2.52 3.41s.43 6.8 0 8.26z"/><path d="m97.84 93.2c-.68-4.05-1.44-8.34-2.32-13.22s-1.72-12-3.68-15.86c-1.95-3.86-2.27-5.74-8.47-5.75s-6.89.56-10.26 1.59c0 0-4.62 1.09-5.13 5.25s-1.21 9.72-1.16 17.43.95 13.07 1.06 15.29c.11 2.21 1.26 3.91 3.44 3.87s5.21-.5 6.11-.82 2.83-.83 2.7-3.5c-.13-2.68.46-4.25 1.74-4.44 1.27-.19 1.92.05 2.91 1.64s1.31 4.46 4.38 4.37c3.07-.1 3.84-.02 5.06-.41s4.31-1.37 3.63-5.42zm-14.44-13.12c.02 1.09.13 2.26-.21 2.88-.49.42-1.27.59-1.88.56-.71-.03-1.27.2-1.67-.33-.3-.4-.49-1.4-.73-2.39-.56-2.29-.54-5.78-.05-8.49 0 0 .07-1.66 1.06-1.72s1.9.38 2.4 1.62c.54 1.34 1.06 6.77 1.08 7.86z"/><path d="m131.66 94.37c-.49-1.21-3.23-4.5-3.33-5.67s.43-1.94 1.2-3.54c.78-1.6 2.06-3.88 2.06-6.68 0-1.9-.35-8.52-.75-12.95-.19-2.11-.48-3.59-1.17-5.14-.69-1.56-1.83-2.65-4.36-4.15-2.54-1.51-5.63-3.77-12.2-3.12 0 0-10.63.38-12.15 2.79s-2.33 5.5-1.4 15.93.93 20.79 1.06 22.52.2 6.01 3.06 5.9c2.86-.12 6.36-.05 7.31-.4.96-.35 2.57-1.6 2.74-3.29s-.41-3.84.39-3.15 3.84 4.44 5.03 5.08 2.33.91 3.97.77 3.89-.33 5.09-.43 2.54-.45 3.02-1.26c.48-.82.91-1.98.42-3.19zm-15.79-12.37c-1.09.1-2.29.32-2.81-.47-.59-.89-.43-2.85-.6-3.51-.33-1.24-.69-7.15-.85-10.47-.07-1.39-.17-2.56.38-3.18.75-.85 2.23-.87 2.23-.87 3.38-.59 3.76 2.81 3.87 4.04s.65 7.63.84 9.83-.74 4.41-3.06 4.62z"/><path d="m163.47 58.95c-1.81-4.09-8.42-7.19-12.13-7.96-3.71-.76-8.07-1.02-11.49-.56s-3.06 5.29-3.06 5.29c-1.08 5.61-1.21 11.84-1.66 17.69-.4 5.19-.72 16.23-.94 18.75s.93 3.41 3.27 3.72 4.98.67 13.52.39 11.08-5.43 13.22-9.19 2.31-10.5 2.37-14.84c.06-4.33-1.29-9.21-3.1-13.3zm-10.87 21.93c-.34 2.38-1.02 4.8-3.23 4.8-.75 0-1.43.06-1.72-.47-.4-.73-.08-2.7.21-5.13.26-2.21.59-8.2 1.11-11.71.22-1.48.35-3.17.63-3.87.32-.8.91-.83 1.83-.69 2.11.32 2.06 3.34 2.11 6.12s-.61 8.56-.95 10.94z"/><path d="m21.44 104.76s5.03-1.84 5.64 0 4.67 13.12 5.34 16.07 1.47 4.42 2.02 6.07 1.83 4.14 2.68 1.09l2.38-8.55c.75-2.71 2.56-11.62 2.9-12.69s1.27-2.1 2.54-1.99 6.66.72 7.85 1.83c1.18 1.11 2.72 3.01 1.92 5.7s-4.48 15.51-5.28 18.68-1.91 5.55-4.1 8.96-3.61 4.28-6.04 5.48-5.7 2.84-8.58.58c0 0-4.78-4.67-7.29-11.57-2.5-6.89-5.11-14.94-6.19-18.24s-2.25-6.62.19-9c1.26-1.22 3-2.04 4.03-2.42z"/><path d="m85.04 142.67c-.09-3.36-.43-5.69-.71-12.75s-1.24-14.05-1.76-17.36c-.52-3.3-3.13-5.9-5.48-6.14s-3.27-.35-7.76-.52-6.68.61-8.43 1.63c-2.19 1.27-3.2 6.74-3.2 6.74-.47 1.83-.14 2.47-.92 6.95s-3.51 17.06-4.14 20.46c-.63 3.39.26 4.18 2.67 5.04 2.41.87 4.39.95 6.98 1.46 2.58.52 2.94-6.12 3.45-7.5s1.95-1.67 2.77-1.58 1.97-.14 2.49.98.46 4.21.74 6.59 1.86 1.98 4.51 1.9c2.78-.09 4.51-.52 6.38-.89s2.49-1.66 2.4-5.02zm-12.84-12.58c-.26.43-.22.89-1.86.79 0 0-1.72.04-2.45-.2-.72-.24-1.38-.73-1.18-1.71s1.26-6.73 1.56-8.53 1-3.45 2.13-3.45 1.74.53 1.94 1.57c.2 1.03.27 6.19.28 8.07 0 1.88-.16 3.04-.42 3.47z"/><path d="m117.67 141.84c-.92-1.07-2.79-3.61-3.11-4.14-.49-.79-.21-1.52.28-2.26s.63-.94 1.54-2.49c.9-1.55 1.65-5.2 1.73-7.42s-.41-6.97-.68-9.62-1.65-5.6-5.22-8.99c-3.7-3.52-8.89-3.11-12.72-2.98s-6.27.88-8.66 1.94c-1.57.7-2.84 2.01-3.59 3.27-.75 1.27-.98 2.19-.69 4.65.36 3.05 2.08 16.16 2.4 19.54s.46 9.91.72 12.42.66 3.22 1.31 3.78c.57.5 3.05.42 4.15.31 1.09-.11 4.55-.62 5.57-1 1.02-.39 1.42-1.78 1.38-2.19s-.12-1.2-.22-2.16.8-.89 1.82.2c.74.79 1.24 1.25 2.56 2.56s2.27 1.81 3.8 1.69 3.27-.59 5.44-1.11 3.63-1.29 4.38-2.08-1.25-2.83-2.17-3.9zm-12.81-12.59c-.38.76-1.11 1.45-2.18 1.6s-2.24-.19-2.38-1.47c-.13-1.29-.44-6.17-.55-7.28-.1-1.12-.38-3.5-.72-5.14 0 0-.24-1.48.76-1.65s2.84.11 3.7.37c.86.25 1.75 1.57 1.98 3.82.23 2.24.31 4.92.34 6.42s-.57 2.58-.95 3.34z"/><path d="m150.53 106.07c.02 3.13-.34 5.01-.63 6.12s-.83 3.1-3.8 2.77c-2.97-.32-6.78-.52-8.46-.13-1.69.39-3.6 1.08-3.94 4.27-.35 3.2-.53 5.32-.27 6.3s.91 2.85 2.53 3.63 2.86 1.35 5.75 1.67 6.22.85 6.74 1.74c.52.88.74 3.38.54 4.83 0 0-.07 3.63-1.23 4.61s-2.14 1.81-4.86 1.68-9.18-.38-13.86-2.43-7.56-6.51-8.21-8.71c-.65-2.19-1.59-6.92-1.27-11.64s1.17-10.25 4.38-14.55 9.32-5.43 14.16-5.03c4.8.4 12.42 1.74 12.45 4.87z"/><path d="m158.18 103.85s4.41 0 5.65.3 3.57.51 3.33 3.72l-.33 4.35c-.11 1.42-.46 3.46.73 3s1.67-.98 2.35-2.44c.68-1.45.87-2.85 1.13-4.11s1.24-3.24 3.22-3.18 5.85.39 6.95.58 2.67.58 2.56 2.05c0 0-.05 4.79-.24 7.34-.15 2.13-.62 6.66-1.94 8.77 0 0-2.42 2.54-3.8 3.13s-1.68.58-1.74 1.01.48.57 1.16 1.19 2.41 1.97 3.29 4.91c.89 2.94 1.2 6.42.97 8.44s-.27 4.71-1.25 4.94c-.99.23-2.51.45-5.17.43s-4.9-.28-5.78-1.27c-.56-.63-.61-1.74-.47-3.61s.23-2.5.22-3.46c0-1.12-.05-1.78-1.3-2.39-.74-.36-1.09-.13-1.47 1.13 0 0-.46 3.73-.46 5.34s-.34 3.22-2.67 3.18c0 0-6.08-.13-7.83-.38s-3.01-.82-2.83-2.97c0 0 .49-8.52.69-13.34s1.65-21.69 1.8-23.71.64-2.8 3.23-2.95z"/><path d="m164.89 97.53c-.43-2.96 2.88-4.42 4.56-6.37 1.28-.92 3.01-.79 4.5-.49.75.03 1.05.77 1.59 1.16.44.27.55.73.71 1.18.55 1.69 2.26 2.73 2.49 4.6.74 5.27-12.14 2.91-13.86-.07zm10.52-.18c-.18-.93-.32-2.14-1.03-2.93-.88-.72-1.06 1.7-1.43 2.22.05.63.33 1.25.49 1.87.53.87 2.09-.01 1.97-1.16zm-7.39-1.11c-.04.83.65.86 1.18.65 1.22-.62 1.67-2.24 1.83-3.5-.03-.33-.45-.23-.65-.11-1.23.53-2.17 1.61-2.37 2.96z"/></svg>